# xmcd
#
# Track frame offsets: 
#        150
#        17550
#        34950
#
# Disc length: 696 seconds
#
# Revision: 1
# Processed by: cddbd v1.5.2PL0 Copyright (c) Steve Scherf et al.
# Submitted via: ExactAudioCopy v0.99pb5
#
DISCID=1b02b603
DTITLE=Lyane Leigh - Du Bist
DYEAR=2003
DGENRE=Pop
TTITLE0=Du Bist (Radio Edit)
TTITLE1=Du Bist (Unplugged Mix)
TTITLE2=Du Bist (Instrumental)
EXTD=
EXTT0=
EXTT1=
EXTT2=
PLAYORDER=
